<mxfile host="app.diagrams.net" agent="Mozilla/5.0 (X11; Ubuntu; Linux x86_64; rv:138.0) Gecko/20100101 Firefox/138.0" version="26.2.14">
  <diagram name="Page-1" id="-1CFQCaCP25UDEpP-s8L">
    <mxGraphModel dx="983" dy="550" grid="1" gridSize="5" guides="1" tooltips="1" connect="1" arrows="1" fold="1" page="1" pageScale="1" pageWidth="850" pageHeight="1100" math="0" shadow="0">
      <root>
        <mxCell id="0" />
        <mxCell id="1" parent="0" />
        <mxCell id="bzeqHrPDxGrpldJn0Ihu-49" style="edgeStyle=orthogonalEdgeStyle;rounded=0;orthogonalLoop=1;jettySize=auto;html=1;exitX=0.5;exitY=1;exitDx=0;exitDy=0;entryX=0.5;entryY=0;entryDx=0;entryDy=0;" parent="1" source="bzeqHrPDxGrpldJn0Ihu-1" target="bzeqHrPDxGrpldJn0Ihu-2" edge="1">
          <mxGeometry relative="1" as="geometry" />
        </mxCell>
        <mxCell id="bzeqHrPDxGrpldJn0Ihu-1" value="Pre-processing" style="rounded=0;whiteSpace=wrap;html=1;" parent="1" vertex="1">
          <mxGeometry x="160" y="140" width="200" height="40" as="geometry" />
        </mxCell>
        <mxCell id="bzeqHrPDxGrpldJn0Ihu-51" style="edgeStyle=orthogonalEdgeStyle;rounded=0;orthogonalLoop=1;jettySize=auto;html=1;exitX=0.5;exitY=1;exitDx=0;exitDy=0;entryX=0.5;entryY=0;entryDx=0;entryDy=0;" parent="1" source="bzeqHrPDxGrpldJn0Ihu-2" target="bzeqHrPDxGrpldJn0Ihu-7" edge="1">
          <mxGeometry relative="1" as="geometry" />
        </mxCell>
        <mxCell id="bzeqHrPDxGrpldJn0Ihu-2" value="" style="rounded=0;whiteSpace=wrap;html=1;" parent="1" vertex="1">
          <mxGeometry x="160" y="200" width="200" height="140" as="geometry" />
        </mxCell>
        <mxCell id="bzeqHrPDxGrpldJn0Ihu-4" value="UART access" style="rounded=0;whiteSpace=wrap;html=1;" parent="1" vertex="1">
          <mxGeometry x="200" y="255" width="120" height="35" as="geometry" />
        </mxCell>
        <mxCell id="bzeqHrPDxGrpldJn0Ihu-5" value="Packaging" style="rounded=0;whiteSpace=wrap;html=1;" parent="1" vertex="1">
          <mxGeometry x="200" y="210" width="120" height="35" as="geometry" />
        </mxCell>
        <mxCell id="bzeqHrPDxGrpldJn0Ihu-6" value="Transmission" style="rounded=0;whiteSpace=wrap;html=1;" parent="1" vertex="1">
          <mxGeometry x="200" y="300" width="120" height="35" as="geometry" />
        </mxCell>
        <mxCell id="bzeqHrPDxGrpldJn0Ihu-53" style="edgeStyle=orthogonalEdgeStyle;rounded=0;orthogonalLoop=1;jettySize=auto;html=1;exitX=0.5;exitY=1;exitDx=0;exitDy=0;entryX=0.5;entryY=0;entryDx=0;entryDy=0;" parent="1" source="bzeqHrPDxGrpldJn0Ihu-7" target="bzeqHrPDxGrpldJn0Ihu-8" edge="1">
          <mxGeometry relative="1" as="geometry" />
        </mxCell>
        <mxCell id="bzeqHrPDxGrpldJn0Ihu-7" value="Inference" style="rounded=0;whiteSpace=wrap;html=1;" parent="1" vertex="1">
          <mxGeometry x="160" y="360" width="200" height="40" as="geometry" />
        </mxCell>
        <mxCell id="bzeqHrPDxGrpldJn0Ihu-54" style="edgeStyle=orthogonalEdgeStyle;rounded=0;orthogonalLoop=1;jettySize=auto;html=1;exitX=0.5;exitY=1;exitDx=0;exitDy=0;entryX=0.5;entryY=0;entryDx=0;entryDy=0;" parent="1" source="bzeqHrPDxGrpldJn0Ihu-8" target="bzeqHrPDxGrpldJn0Ihu-12" edge="1">
          <mxGeometry relative="1" as="geometry" />
        </mxCell>
        <mxCell id="bzeqHrPDxGrpldJn0Ihu-8" value="" style="rounded=0;whiteSpace=wrap;html=1;" parent="1" vertex="1">
          <mxGeometry x="160" y="420" width="200" height="140" as="geometry" />
        </mxCell>
        <mxCell id="bzeqHrPDxGrpldJn0Ihu-9" value="UART access" style="rounded=0;whiteSpace=wrap;html=1;" parent="1" vertex="1">
          <mxGeometry x="200" y="472.5" width="120" height="35" as="geometry" />
        </mxCell>
        <mxCell id="bzeqHrPDxGrpldJn0Ihu-10" value="Unpackaging" style="rounded=0;whiteSpace=wrap;html=1;" parent="1" vertex="1">
          <mxGeometry x="200" y="515" width="120" height="35" as="geometry" />
        </mxCell>
        <mxCell id="bzeqHrPDxGrpldJn0Ihu-11" value="Reception" style="rounded=0;whiteSpace=wrap;html=1;" parent="1" vertex="1">
          <mxGeometry x="200" y="430" width="120" height="35" as="geometry" />
        </mxCell>
        <mxCell id="bzeqHrPDxGrpldJn0Ihu-12" value="Post-processing" style="rounded=0;whiteSpace=wrap;html=1;" parent="1" vertex="1">
          <mxGeometry x="160" y="580" width="200" height="40" as="geometry" />
        </mxCell>
        <mxCell id="bzeqHrPDxGrpldJn0Ihu-13" value="" style="endArrow=classic;html=1;rounded=0;startArrow=classic;startFill=1;" parent="1" edge="1">
          <mxGeometry width="50" height="50" relative="1" as="geometry">
            <mxPoint x="400" y="140" as="sourcePoint" />
            <mxPoint x="400" y="180" as="targetPoint" />
          </mxGeometry>
        </mxCell>
        <mxCell id="bzeqHrPDxGrpldJn0Ihu-14" value="PeP" style="text;html=1;align=center;verticalAlign=middle;whiteSpace=wrap;rounded=0;" parent="1" vertex="1">
          <mxGeometry x="395" y="145" width="60" height="30" as="geometry" />
        </mxCell>
        <mxCell id="bzeqHrPDxGrpldJn0Ihu-16" value="" style="endArrow=none;dashed=1;html=1;dashPattern=1 3;strokeWidth=2;rounded=0;" parent="1" edge="1">
          <mxGeometry width="50" height="50" relative="1" as="geometry">
            <mxPoint x="320" y="300" as="sourcePoint" />
            <mxPoint x="400" y="300" as="targetPoint" />
          </mxGeometry>
        </mxCell>
        <mxCell id="bzeqHrPDxGrpldJn0Ihu-17" value="" style="endArrow=none;dashed=1;html=1;dashPattern=1 3;strokeWidth=2;rounded=0;" parent="1" edge="1">
          <mxGeometry width="50" height="50" relative="1" as="geometry">
            <mxPoint x="320" y="335" as="sourcePoint" />
            <mxPoint x="400" y="335" as="targetPoint" />
          </mxGeometry>
        </mxCell>
        <mxCell id="bzeqHrPDxGrpldJn0Ihu-18" value="" style="endArrow=classic;html=1;rounded=0;startArrow=classic;startFill=1;" parent="1" edge="1">
          <mxGeometry width="50" height="50" relative="1" as="geometry">
            <mxPoint x="400" y="300" as="sourcePoint" />
            <mxPoint x="400" y="337.5" as="targetPoint" />
          </mxGeometry>
        </mxCell>
        <mxCell id="bzeqHrPDxGrpldJn0Ihu-19" value="DT=n_bytes/baud_rate" style="text;html=1;align=center;verticalAlign=middle;whiteSpace=wrap;rounded=0;" parent="1" vertex="1">
          <mxGeometry x="410" y="302.5" width="130" height="30" as="geometry" />
        </mxCell>
        <mxCell id="bzeqHrPDxGrpldJn0Ihu-21" value="" style="endArrow=none;dashed=1;html=1;dashPattern=1 3;strokeWidth=2;rounded=0;" parent="1" edge="1">
          <mxGeometry width="50" height="50" relative="1" as="geometry">
            <mxPoint x="320" y="290" as="sourcePoint" />
            <mxPoint x="400" y="290" as="targetPoint" />
          </mxGeometry>
        </mxCell>
        <mxCell id="bzeqHrPDxGrpldJn0Ihu-22" value="" style="endArrow=none;dashed=1;html=1;dashPattern=1 3;strokeWidth=2;rounded=0;" parent="1" edge="1">
          <mxGeometry width="50" height="50" relative="1" as="geometry">
            <mxPoint x="320" y="210" as="sourcePoint" />
            <mxPoint x="400" y="210" as="targetPoint" />
          </mxGeometry>
        </mxCell>
        <mxCell id="bzeqHrPDxGrpldJn0Ihu-23" value="" style="endArrow=classic;html=1;rounded=0;startArrow=classic;startFill=1;" parent="1" edge="1">
          <mxGeometry width="50" height="50" relative="1" as="geometry">
            <mxPoint x="400" y="210" as="sourcePoint" />
            <mxPoint x="400" y="291.25" as="targetPoint" />
          </mxGeometry>
        </mxCell>
        <mxCell id="bzeqHrPDxGrpldJn0Ihu-24" value="WP " style="text;html=1;align=center;verticalAlign=middle;whiteSpace=wrap;rounded=0;" parent="1" vertex="1">
          <mxGeometry x="405" y="240" width="40" height="30" as="geometry" />
        </mxCell>
        <mxCell id="bzeqHrPDxGrpldJn0Ihu-25" value="" style="endArrow=none;dashed=1;html=1;dashPattern=1 3;strokeWidth=2;rounded=0;" parent="1" edge="1">
          <mxGeometry width="50" height="50" relative="1" as="geometry">
            <mxPoint x="360" y="140" as="sourcePoint" />
            <mxPoint x="400" y="140" as="targetPoint" />
          </mxGeometry>
        </mxCell>
        <mxCell id="bzeqHrPDxGrpldJn0Ihu-26" value="" style="endArrow=none;dashed=1;html=1;dashPattern=1 3;strokeWidth=2;rounded=0;" parent="1" edge="1">
          <mxGeometry width="50" height="50" relative="1" as="geometry">
            <mxPoint x="360" y="180" as="sourcePoint" />
            <mxPoint x="400" y="180" as="targetPoint" />
          </mxGeometry>
        </mxCell>
        <mxCell id="bzeqHrPDxGrpldJn0Ihu-27" value="" style="endArrow=classic;html=1;rounded=0;startArrow=classic;startFill=1;" parent="1" edge="1">
          <mxGeometry width="50" height="50" relative="1" as="geometry">
            <mxPoint x="400" y="359.43" as="sourcePoint" />
            <mxPoint x="400" y="399.43" as="targetPoint" />
          </mxGeometry>
        </mxCell>
        <mxCell id="bzeqHrPDxGrpldJn0Ihu-28" value="IS" style="text;html=1;align=center;verticalAlign=middle;whiteSpace=wrap;rounded=0;" parent="1" vertex="1">
          <mxGeometry x="395" y="364.43" width="60" height="30" as="geometry" />
        </mxCell>
        <mxCell id="bzeqHrPDxGrpldJn0Ihu-29" value="" style="endArrow=none;dashed=1;html=1;dashPattern=1 3;strokeWidth=2;rounded=0;" parent="1" edge="1">
          <mxGeometry width="50" height="50" relative="1" as="geometry">
            <mxPoint x="360" y="359.43" as="sourcePoint" />
            <mxPoint x="400" y="359.43" as="targetPoint" />
          </mxGeometry>
        </mxCell>
        <mxCell id="bzeqHrPDxGrpldJn0Ihu-30" value="" style="endArrow=none;dashed=1;html=1;dashPattern=1 3;strokeWidth=2;rounded=0;" parent="1" edge="1">
          <mxGeometry width="50" height="50" relative="1" as="geometry">
            <mxPoint x="360" y="399.43" as="sourcePoint" />
            <mxPoint x="400" y="399.43" as="targetPoint" />
          </mxGeometry>
        </mxCell>
        <mxCell id="bzeqHrPDxGrpldJn0Ihu-31" value="" style="endArrow=classic;html=1;rounded=0;startArrow=classic;startFill=1;" parent="1" edge="1">
          <mxGeometry width="50" height="50" relative="1" as="geometry">
            <mxPoint x="400" y="580" as="sourcePoint" />
            <mxPoint x="400" y="620" as="targetPoint" />
          </mxGeometry>
        </mxCell>
        <mxCell id="bzeqHrPDxGrpldJn0Ihu-32" value="PoP" style="text;html=1;align=center;verticalAlign=middle;whiteSpace=wrap;rounded=0;" parent="1" vertex="1">
          <mxGeometry x="395" y="585" width="60" height="30" as="geometry" />
        </mxCell>
        <mxCell id="bzeqHrPDxGrpldJn0Ihu-33" value="" style="endArrow=none;dashed=1;html=1;dashPattern=1 3;strokeWidth=2;rounded=0;" parent="1" edge="1">
          <mxGeometry width="50" height="50" relative="1" as="geometry">
            <mxPoint x="360" y="580" as="sourcePoint" />
            <mxPoint x="400" y="580" as="targetPoint" />
          </mxGeometry>
        </mxCell>
        <mxCell id="bzeqHrPDxGrpldJn0Ihu-34" value="" style="endArrow=none;dashed=1;html=1;dashPattern=1 3;strokeWidth=2;rounded=0;" parent="1" edge="1">
          <mxGeometry width="50" height="50" relative="1" as="geometry">
            <mxPoint x="360" y="620" as="sourcePoint" />
            <mxPoint x="400" y="620" as="targetPoint" />
          </mxGeometry>
        </mxCell>
        <mxCell id="bzeqHrPDxGrpldJn0Ihu-41" value="" style="endArrow=none;dashed=1;html=1;dashPattern=1 3;strokeWidth=2;rounded=0;" parent="1" edge="1">
          <mxGeometry width="50" height="50" relative="1" as="geometry">
            <mxPoint x="320" y="430" as="sourcePoint" />
            <mxPoint x="400" y="430" as="targetPoint" />
          </mxGeometry>
        </mxCell>
        <mxCell id="bzeqHrPDxGrpldJn0Ihu-42" value="" style="endArrow=none;dashed=1;html=1;dashPattern=1 3;strokeWidth=2;rounded=0;" parent="1" edge="1">
          <mxGeometry width="50" height="50" relative="1" as="geometry">
            <mxPoint x="320" y="465" as="sourcePoint" />
            <mxPoint x="400" y="465" as="targetPoint" />
          </mxGeometry>
        </mxCell>
        <mxCell id="bzeqHrPDxGrpldJn0Ihu-43" value="" style="endArrow=classic;html=1;rounded=0;startArrow=classic;startFill=1;" parent="1" edge="1">
          <mxGeometry width="50" height="50" relative="1" as="geometry">
            <mxPoint x="400" y="430" as="sourcePoint" />
            <mxPoint x="400" y="467.5" as="targetPoint" />
          </mxGeometry>
        </mxCell>
        <mxCell id="bzeqHrPDxGrpldJn0Ihu-44" value="DR=n_bytes/baud_rate" style="text;html=1;align=center;verticalAlign=middle;whiteSpace=wrap;rounded=0;" parent="1" vertex="1">
          <mxGeometry x="410" y="432.5" width="130" height="30" as="geometry" />
        </mxCell>
        <mxCell id="bzeqHrPDxGrpldJn0Ihu-45" value="" style="endArrow=none;dashed=1;html=1;dashPattern=1 3;strokeWidth=2;rounded=0;" parent="1" edge="1">
          <mxGeometry width="50" height="50" relative="1" as="geometry">
            <mxPoint x="320" y="552.5" as="sourcePoint" />
            <mxPoint x="400" y="552.5" as="targetPoint" />
          </mxGeometry>
        </mxCell>
        <mxCell id="bzeqHrPDxGrpldJn0Ihu-46" value="" style="endArrow=none;dashed=1;html=1;dashPattern=1 3;strokeWidth=2;rounded=0;" parent="1" edge="1">
          <mxGeometry width="50" height="50" relative="1" as="geometry">
            <mxPoint x="320" y="472.5" as="sourcePoint" />
            <mxPoint x="400" y="472.5" as="targetPoint" />
          </mxGeometry>
        </mxCell>
        <mxCell id="bzeqHrPDxGrpldJn0Ihu-47" value="" style="endArrow=classic;html=1;rounded=0;startArrow=classic;startFill=1;" parent="1" edge="1">
          <mxGeometry width="50" height="50" relative="1" as="geometry">
            <mxPoint x="400" y="472.5" as="sourcePoint" />
            <mxPoint x="400" y="553.75" as="targetPoint" />
          </mxGeometry>
        </mxCell>
        <mxCell id="bzeqHrPDxGrpldJn0Ihu-48" value="RP" style="text;html=1;align=center;verticalAlign=middle;whiteSpace=wrap;rounded=0;" parent="1" vertex="1">
          <mxGeometry x="408" y="495" width="35" height="30" as="geometry" />
        </mxCell>
      </root>
    </mxGraphModel>
  </diagram>
</mxfile>
